<svg width="25" height="24" viewBox="0 0 25 24" fill="none" xmlns="http://www.w3.org/2000/svg">
<path d="M12.123 0C5.49569 0 0.123047 5.37265 0.123047 12C0.123047 18.6274 5.49569 24 12.123 24C18.7504 24 24.123 18.6274 24.123 12C24.123 5.37265 18.7504 0 12.123 0ZM15.6487 6.87824C15.0783 6.87824 14.5042 6.87824 13.934 6.87824C13.5732 6.85488 13.2008 7.13035 13.1349 7.49124C13.1271 8.11592 13.131 8.74035 13.131 9.36502C13.9688 9.36892 14.8069 9.36502 15.645 9.36892C15.583 10.2727 15.4705 11.1729 15.3387 12.0652C14.5977 12.073 13.8567 12.0652 13.1157 12.0691C13.1079 14.7343 13.1196 17.3955 13.1118 20.0609C12.0099 20.0648 10.9121 20.057 9.81026 20.0648C9.7908 17.3997 9.81026 14.7345 9.79858 12.0691C9.26322 12.0652 8.72396 12.073 8.18859 12.0652C8.19248 11.169 8.18859 10.273 8.18859 9.3806C8.72396 9.37281 9.26322 9.3806 9.79858 9.3767C9.81416 8.50771 9.78301 7.63482 9.81416 6.76582C9.87232 6.0713 10.1322 5.37703 10.6484 4.89982C11.273 4.30629 12.1574 4.10456 12.9955 4.0812C13.88 4.07341 14.7646 4.0773 15.6489 4.0773C15.6526 5.01225 15.6526 5.9433 15.6487 6.87824Z" fill="#DADADA"/>
</svg>
