<svg width="25" height="24" viewBox="0 0 25 24" fill="none" xmlns="http://www.w3.org/2000/svg">
<path d="M12.123 0C5.49569 0 0.123047 5.37265 0.123047 12C0.123047 18.6274 5.49569 24 12.123 24C18.7504 24 24.123 18.6274 24.123 12C24.123 5.37265 18.7504 0 12.123 0ZM18.8733 5.5773L16.1865 18.1954C16.1361 18.4431 15.8538 18.5646 15.6394 18.4302L11.5076 15.6899L9.33427 17.7124C9.14081 17.8778 8.84125 17.7973 8.75705 17.5569L7.34198 13.0939L3.54209 11.5354C3.25056 11.4026 3.2547 10.9383 3.55353 10.8222L18.3871 5.16751C18.6543 5.06384 18.9302 5.29648 18.8733 5.5773Z" fill="#DADADA"/>
<path d="M9.21355 16.2334L9.45495 13.9391L16.1563 7.38867L8.06641 12.7015L9.21355 16.2334Z" fill="#DADADA"/>
</svg>
