<svg width="25" height="24" viewBox="0 0 25 24" fill="none" xmlns="http://www.w3.org/2000/svg">
<path d="M15.2497 5.95459H8.93647C7.35666 5.95459 6.07129 7.23996 6.07129 8.81977V15.1909C6.07129 16.7707 7.35666 18.0561 8.93647 18.0561H15.2497C16.8295 18.0561 18.1148 16.7707 18.1148 15.1909V8.81977C18.1148 7.23996 16.8295 5.95459 15.2497 5.95459ZM12.1051 15.8202C9.96365 15.8202 8.22152 14.0965 8.22152 11.978C8.22152 9.85936 9.96389 8.13572 12.1051 8.13572C14.2463 8.13572 15.9887 9.85936 15.9887 11.978C15.9887 14.0965 14.2466 15.8202 12.1051 15.8202ZM16.0578 8.89229C15.5531 8.89229 15.1441 8.48322 15.1441 7.97852C15.1441 7.47381 15.5531 7.06475 16.0578 7.06475C16.5625 7.06475 16.9716 7.47381 16.9716 7.97852C16.9716 8.48322 16.5625 8.89229 16.0578 8.89229Z" fill="black"/>
<path d="M12.123 0C5.49569 0 0.123047 5.37265 0.123047 12C0.123047 18.6274 5.49569 24 12.123 24C18.7504 24 24.123 18.6274 24.123 12C24.123 5.37265 18.7504 0 12.123 0ZM19.5323 15.191C19.5323 17.5525 17.611 19.4735 15.2498 19.4735H8.93664C6.57519 19.4735 4.6542 17.5522 4.6542 15.191V8.81992C4.6542 6.45847 6.57543 4.53748 8.93664 4.53748H15.2498C17.6113 4.53748 19.5323 6.45871 19.5323 8.81992V15.191Z" fill="#DADADA"/>
<path d="M12.1052 9.55029C10.7437 9.55029 9.63623 10.6393 9.63623 11.9779C9.63623 13.3166 10.7437 14.4056 12.1052 14.4056C13.4668 14.4056 14.5743 13.3166 14.5743 11.9779C14.5743 10.6393 13.4668 9.55029 12.1052 9.55029Z" fill="#DADADA"/>
</svg>
