<svg width="70" height="70" viewBox="0 0 70 70" fill="none" xmlns="http://www.w3.org/2000/svg">
<path d="M26.3965 14.0671C27.7141 15.3847 28.3731 19.3378 26.3965 20.6554C25.7375 21.3144 27.0555 21.3144 27.0555 20.6554C28.3731 19.3378 29.0321 18.0202 28.3731 16.0437C28.3731 14.7261 27.7141 14.0671 27.0555 12.7496C25.7379 12.091 25.0789 11.432 25.0789 9.4555C25.0789 8.79652 25.0789 7.4789 25.7378 7.4789C26.3964 7.47929 27.0554 6.82031 26.3964 6.82031C24.4202 6.82031 23.7612 8.13791 23.7612 10.1144C23.7612 12.0909 25.0788 12.7496 26.3964 14.0671L26.3965 14.0671Z" fill="#171717"/>
<path d="M34.3024 15.3851C34.9614 16.7027 35.6204 19.3378 34.3024 19.9968C32.9848 20.6558 34.3024 19.9968 34.3024 19.9968C35.62 19.3378 36.9376 18.0202 36.279 16.0437C35.6204 14.0671 30.3497 10.7734 34.9614 8.13779C35.6204 7.47881 34.3024 7.47881 34.3024 8.13779C32.3262 8.79677 31.6672 10.7733 32.3262 12.7495C32.3262 14.0671 33.6438 14.0671 34.3024 15.385L34.3024 15.3851Z" fill="#171717"/>
<path d="M42.2086 14.7261C43.5266 16.7027 42.8676 18.0202 40.891 19.9968C40.2324 19.9968 42.2086 19.9968 42.2086 19.3378C43.5262 18.0202 44.8438 16.7026 44.1852 14.7261C44.1852 14.7261 43.5262 14.0671 42.8676 13.4085C41.55 12.0909 40.891 10.1144 42.2086 8.79677C42.2086 8.13779 42.8676 8.13779 43.5262 8.13779C44.1852 7.47881 42.8672 7.47881 42.8672 8.13779C40.891 8.79677 40.2324 10.7733 40.2324 12.0909C40.891 13.4085 41.55 14.0671 42.2086 14.7261L42.2086 14.7261Z" fill="#171717"/>
<path d="M19.8084 26.585C24.4201 26.585 29.6908 27.244 34.3024 26.585C38.2555 27.244 42.8672 26.585 46.8204 26.585C47.4793 26.585 48.138 25.9261 46.8204 25.9261C42.8677 26.585 38.9149 26.585 35.6204 25.9261C31.6673 24.6085 25.738 25.9261 21.1264 25.2671C20.4674 25.9261 19.1498 26.5851 19.8084 26.5851V26.585Z" fill="#171717"/>
<path d="M25.0796 53.597C25.7386 53.597 27.0562 52.938 26.3972 52.938C21.1269 50.3028 21.1269 45.0321 20.4679 39.761C19.1503 35.1493 19.1503 31.1962 20.4679 26.584L19.1503 26.5844C17.8327 31.1961 17.8327 36.4668 19.1503 41.0784C19.8089 47.0077 20.4679 50.9604 25.0796 53.5964V53.597Z" fill="#171717"/>
<path d="M48.7965 39.7613C48.7965 44.373 47.4789 51.6203 43.5258 54.9143C42.8668 55.5732 44.1848 55.5732 44.1848 54.9143C48.1379 50.9612 50.1145 46.3495 50.1145 41.0793C50.7735 36.4676 50.7735 31.1969 50.1145 25.9263C49.4555 25.9263 48.1379 26.5852 48.1379 26.5852C48.7965 30.5379 48.7965 35.1497 48.7965 39.7612L48.7965 39.7613Z" fill="#171717"/>
<path d="M46.1613 45.6914C45.5023 46.35 44.8437 47.6676 43.5261 48.3266L42.2081 49.6442C41.5495 50.3032 40.8905 50.9618 40.2319 50.9618C39.5729 51.6208 40.8905 52.2798 40.8905 51.6208C40.8905 50.9618 42.2081 50.9618 42.8671 50.3032L44.8437 48.9856C46.1613 47.668 46.8203 47.009 47.4789 45.6915C48.1379 45.0325 46.8203 45.0325 46.1613 45.6915L46.1613 45.6914Z" fill="#171717"/>
<path d="M52.0902 29.8791C55.3843 30.5381 57.3609 33.1732 58.0195 36.4674C58.6785 40.4205 56.0429 43.0557 52.7488 44.3733C52.0902 45.0319 52.7492 46.3495 53.4078 45.6909C56.7019 43.7143 59.9961 42.3968 59.3371 37.785C59.3371 33.8319 56.7019 30.5381 52.7488 29.2202C52.0902 29.2202 51.4316 29.8792 52.0902 29.8792L52.0902 29.8791Z" fill="#171717"/>
<path d="M60.6554 56.2322C58.0202 56.2322 54.7261 56.8912 51.432 57.5498C46.1613 57.5498 40.891 57.5498 35.62 56.8908C27.0552 56.8908 17.832 56.2319 9.267 55.5732C9.267 55.5732 8.60802 56.2322 9.267 56.2322C11.2436 59.5263 12.5611 61.5029 16.5143 61.5029C23.7612 61.5029 31.0083 60.8439 37.5963 61.5029C44.1846 62.1619 50.1143 62.8205 56.0433 62.8205C59.996 62.8205 60.655 60.8439 60.655 56.2322C61.314 56.8912 61.314 56.2322 60.655 56.2322H60.6554ZM58.6788 61.5029C58.0198 62.1619 55.3847 61.5029 54.7257 61.5029H48.1378C43.5261 61.5029 39.573 60.8439 35.6198 60.8439H19.8078C14.5371 60.8439 13.2195 60.8439 10.5844 56.8908C19.1492 57.5498 27.7134 57.5498 36.2784 58.2084C40.8901 58.2084 45.5018 58.8674 50.1134 58.8674H56.7017C57.3607 58.8674 58.0193 58.8674 58.6783 58.2084H59.9959V59.526C59.3369 59.5264 58.6779 60.844 58.6779 61.503L58.6788 61.5029Z" fill="#171717"/>
<g clip-path="url(#clip0_6_98)">
<path d="M43.5787 31.567C41.4044 29.994 39.3593 29.9703 38.2474 31.5041C37.5684 32.4319 37.5493 33.5089 38.1162 34.5655C37.4606 34.7131 36.7667 34.9847 36.0452 35.4235C33.7347 36.7985 32.9032 38.6712 33.8815 40.3002C34.8672 41.9411 36.9054 42.0857 39.2039 40.7182L39.3824 40.6056C40.7985 39.7118 41.6185 38.6118 41.7315 37.5254C42.7921 37.8876 43.754 37.8296 44.5036 37.3565C44.7893 37.1762 45.0492 36.9289 45.2716 36.6222C46.403 35.0928 45.7486 33.1595 43.5787 31.567ZM36.4345 36.0929C36.8228 35.8644 37.6934 35.3982 38.5864 35.2839C38.8173 35.5707 39.0915 35.847 39.4164 36.1245C38.4808 36.3822 37.6841 37.0182 37.2718 37.894C36.9053 38.6579 36.1499 39.2012 35.2926 39.293L34.3489 39.4061C33.854 37.8047 35.7844 36.4865 36.4345 36.0929ZM38.8072 40.0368C38.1333 40.4455 35.9024 41.6038 34.74 40.1576L35.3782 40.0877C35.8792 40.0377 36.3482 39.8581 36.7647 39.5952C37.2883 39.2648 37.7098 38.7991 37.9699 38.2355C38.3364 37.4716 39.0918 36.9284 39.9491 36.8366L40.2741 36.7979C40.5045 36.9519 40.7393 37.0867 40.959 37.1976C41.0024 38.5847 39.3859 39.6882 38.8072 40.0368ZM40.4089 35.9307C39.7609 35.4578 37.8252 33.8673 38.7056 32.23L39.0273 32.7925C39.5806 33.7745 40.6305 34.4098 41.7419 34.4571C42.5922 34.4861 43.388 34.9824 43.8104 35.7308L44.2854 36.5625C42.994 37.6272 41.0224 36.3754 40.4089 35.9307ZM44.821 35.9082L44.4994 35.3458C43.946 34.3637 42.8961 33.7285 41.7847 33.6812C40.9344 33.6521 40.1386 33.1559 39.7162 32.4075L39.2412 31.5758C40.5446 30.5036 42.5042 31.7628 43.1177 32.2075C43.7581 32.6687 45.7013 34.271 44.821 35.9082Z" fill="#171717"/>
</g>
<defs>
<clipPath id="clip0_6_98">
<rect width="17.5897" height="17.5897" fill="white" transform="translate(27.2822 33.7988) rotate(-32.2586)"/>
</clipPath>
</defs>
</svg>
