<svg width="83" height="89" viewBox="0 0 83 89" fill="none" xmlns="http://www.w3.org/2000/svg">
<path d="M27.4805 12.1056C29.551 14.1761 30.5866 20.3881 27.4805 22.4586C26.4449 23.4942 28.516 23.4942 28.516 22.4586C30.5865 20.3881 31.6221 18.3176 30.5865 15.2117C30.5865 13.1412 29.551 12.1056 28.516 10.0352C26.4455 9.0003 25.4099 7.96471 25.4099 4.85879C25.4099 3.82325 25.4099 1.7527 26.4455 1.7527C27.4804 1.75331 28.516 0.717773 27.4804 0.717773C24.3749 0.717773 23.3394 2.78829 23.3394 5.89422C23.3394 9.00014 25.4099 10.0352 27.4804 12.1056L27.4805 12.1056Z" fill="url(#paint0_linear_6_72)"/>
<path d="M39.9039 14.177C40.9395 16.2475 41.9751 20.3884 39.9039 21.424C37.8334 22.4595 39.9039 21.424 39.9039 21.424C41.9745 20.3884 44.045 18.3179 43.01 15.2119C41.9751 12.1058 33.6926 6.93003 40.9395 2.78837C41.9751 1.75283 39.904 1.75283 39.904 2.78837C36.7985 3.82391 35.7629 6.92988 36.7985 10.0353C36.7985 12.1058 38.869 12.1058 39.904 14.1768L39.9039 14.177Z" fill="url(#paint1_linear_6_72)"/>
<path d="M52.328 13.1414C54.3992 16.2474 53.3636 18.3178 50.2575 21.4239C49.2226 21.4239 52.328 21.4239 52.328 20.3883C54.3986 18.3178 56.4691 16.2473 55.4341 13.1414C55.4341 13.1414 54.3986 12.1058 53.3636 11.0709C51.2931 9.00036 50.2575 5.89443 52.3281 3.82391C52.3281 2.78837 53.3636 2.78837 54.3986 2.78837C55.4341 1.75283 53.3631 1.75283 53.3631 2.78837C50.2576 3.82391 49.2227 6.92988 49.2227 9.00039C50.2576 11.0709 51.2932 12.1058 52.3281 13.1414L52.328 13.1414Z" fill="url(#paint2_linear_6_72)"/>
<path d="M17.1277 31.7771C24.3747 31.7771 32.6572 32.8127 39.904 31.7771C46.116 32.8127 53.363 31.7771 59.5751 31.7771C60.6107 31.7771 61.6456 30.7416 59.5751 30.7416C53.3637 31.7771 47.1522 31.7771 41.9751 30.7416C35.7631 28.6711 26.4456 30.7416 19.1988 29.7061C18.1633 30.7416 16.0928 31.7772 17.1277 31.7772V31.7771Z" fill="url(#paint3_linear_6_72)"/>
<path d="M25.4109 74.2244C26.4464 74.2244 28.517 73.1888 27.4814 73.1888C19.1995 69.0478 19.1995 60.7653 18.1639 52.4821C16.0934 45.2351 16.0934 39.0231 18.1639 31.7754L16.0934 31.776C14.0229 39.023 14.0229 47.3055 16.0934 54.5523C17.1283 63.8698 18.1639 70.0811 25.4109 74.2234V74.2244Z" fill="url(#paint4_linear_6_72)"/>
<path d="M62.6804 52.4819C62.6804 59.7289 60.6099 71.1175 54.3979 76.2938C53.3623 77.3293 55.4334 77.3293 55.4334 76.2938C61.6454 70.0818 64.7515 62.8348 64.7515 54.5531C65.787 47.3061 65.787 39.0236 64.7515 30.7412C63.716 30.7412 61.6454 31.7768 61.6454 31.7768C62.6803 37.9881 62.6803 45.2352 62.6803 52.4819L62.6804 52.4819Z" fill="url(#paint5_linear_6_72)"/>
<path d="M67.8564 36.9534C73.0329 37.9889 76.139 42.1298 77.1739 47.3064C78.2095 53.5184 74.0678 57.6595 68.8914 59.73C67.8565 60.7649 68.892 62.8354 69.9269 61.8005C75.1034 58.6944 80.28 56.6241 79.2444 49.3769C79.2444 43.1649 75.1034 37.989 68.8914 35.918C67.8564 35.918 66.8215 36.9535 67.8564 36.9535L67.8564 36.9534Z" fill="url(#paint6_linear_6_72)"/>
<path d="M81.316 78.3646C77.175 78.3646 71.9985 79.4002 66.8221 80.4352C58.5395 80.4352 50.2576 80.4352 41.9746 79.3996C28.5157 79.3996 14.0221 78.3641 0.562779 77.3291C0.562779 77.3291 -0.472761 78.3646 0.562779 78.3646C3.66886 83.5411 5.73922 86.6472 11.9514 86.6472C23.3394 86.6472 34.7277 85.6116 45.0803 86.6472C55.4333 87.6827 64.7514 88.7177 74.0684 88.7177C80.2798 88.7177 81.3153 85.6116 81.3153 78.3646C82.3509 79.4002 82.3509 78.3646 81.3153 78.3646H81.316ZM78.2099 86.6472C77.1744 87.6827 73.0335 86.6472 71.9979 86.6472H61.6455C54.3985 86.6472 48.1865 85.6116 41.9743 85.6116H17.1269C8.84437 85.6116 6.77385 85.6116 2.63298 79.3996C16.092 80.4352 29.55 80.4352 43.0093 81.4701C50.2562 81.4701 57.5032 82.5057 64.75 82.5057H75.103C76.1386 82.5057 77.1735 82.5057 78.2091 81.4701H80.2796V83.5406C79.2441 83.5413 78.2085 85.6118 78.2085 86.6473L78.2099 86.6472Z" fill="url(#paint7_linear_6_72)"/>
<g clip-path="url(#clip0_6_72)">
<path d="M28.746 46.4521C29.0391 46.3685 29.251 46.2101 29.421 45.9712C29.5959 45.7311 29.7202 45.3976 29.7948 45.0114C29.9392 44.2402 29.8678 43.2522 29.6854 42.4008L29.6803 42.3818C29.6549 42.2868 29.6026 42.2246 29.5304 42.1829C29.4594 42.146 29.3686 42.1296 29.2642 42.1576L29.2499 42.1614C28.6297 42.3531 27.9059 42.7658 27.4396 43.3994C26.9829 44.0304 26.7382 44.8641 27.0384 46.0603C27.1237 45.8849 27.2413 45.7161 27.3782 45.5623C27.5385 45.3821 27.6361 45.2338 27.7226 45.063C27.814 44.8911 27.8929 44.6919 28.0017 44.4338C28.0845 44.2489 28.3 44.1607 28.4849 44.2433C28.6746 44.3248 28.7581 44.5414 28.6767 44.7311C28.5734 44.9723 28.4875 45.1836 28.378 45.4012C28.2671 45.614 28.1265 45.8297 27.9264 46.0512C27.8246 46.1649 27.7408 46.2891 27.6881 46.4151C28.1344 46.5245 28.4849 46.5221 28.746 46.4521L28.746 46.4521ZM23.6478 44.7612C23.6003 44.7739 23.5627 44.8044 23.5348 44.8525C23.5104 44.8947 23.5007 44.9533 23.5134 45.0007L23.516 45.0103C23.6558 45.456 23.8566 45.9211 24.0955 46.2996C24.3343 46.6781 24.6132 46.9594 24.8726 47.0731C25.0515 47.1523 25.2092 47.1711 25.4039 47.119C25.5273 47.0859 25.6729 47.0215 25.8341 46.9019C25.7129 46.8479 25.601 46.7915 25.4987 46.7324C25.3216 46.6222 25.1695 46.5104 24.9899 46.3906C24.8258 46.2718 24.7802 46.0449 24.8979 45.8761C25.0107 45.7086 25.2436 45.6665 25.4125 45.784C25.5994 45.912 25.7395 46.0169 25.8731 46.0981C26.0103 46.1732 26.1342 46.2367 26.327 46.2919C26.3318 46.2906 26.333 46.2954 26.3377 46.2941L26.3314 46.2704C26.0968 45.4329 25.6706 45.0385 25.1785 44.8347C24.6863 44.6308 24.1001 44.6455 23.6526 44.7603L23.6478 44.7615L23.6478 44.7612ZM28.9368 47.1641C28.5272 47.2687 28.0682 47.2645 27.5404 47.1364C27.5408 47.2329 27.5554 47.3256 27.5762 47.4218L27.5825 47.4455C27.7478 48.0625 28.085 48.6182 28.5524 49.0524L28.5597 49.0605C28.6494 49.1484 28.7464 49.2444 28.8425 49.3561C28.975 49.5088 28.9562 49.7428 28.8035 49.8752C28.6507 50.0076 28.4168 49.9889 28.2842 49.8362C28.2186 49.7622 28.1397 49.6766 28.0513 49.5934C28.05 49.5886 28.0452 49.5899 28.044 49.5852C27.4748 49.0563 27.0702 48.3814 26.8705 47.6364C26.8209 47.4513 26.7464 47.3441 26.6339 47.2471C26.6207 47.2354 26.6073 47.2237 26.5892 47.2133C26.2632 47.5345 25.9364 47.7392 25.5947 47.8308C25.2399 47.931 24.8768 47.8859 24.5693 47.7444C24.263 47.6077 24.0041 47.382 23.7815 47.1212C23.3386 46.5887 23.0207 45.8958 22.8116 45.2294L22.8014 45.1915C22.674 44.6966 22.9551 44.1889 23.457 44.0494L23.476 44.0443L23.495 44.0392C24.059 43.9034 24.7737 43.8746 25.4578 44.149C25.7194 44.2519 25.9699 44.4085 26.1927 44.6133C26.2689 43.9673 26.5111 43.409 26.8445 42.9636C27.4391 42.1634 28.2847 41.6927 29.0258 41.4585L29.0734 41.4458C29.3534 41.3707 29.6473 41.4039 29.8867 41.538C30.1262 41.6723 30.3161 41.9063 30.3924 42.191L30.4076 42.248C30.5528 42.9416 30.636 43.7077 30.5969 44.4354C30.5578 45.1631 30.4073 45.8545 30.0242 46.3996C29.7692 46.7579 29.4019 47.0394 28.9367 47.1641L28.9368 47.1641Z" fill="#085CFF"/>
</g>
<path d="M27.8941 30.3613C28.3536 33.6926 27.4849 36.8908 27.4849 40.1833" stroke="url(#paint8_linear_6_72)" stroke-width="2" stroke-linecap="round"/>
<path d="M20.0059 41.2647C22.822 40.6745 25.632 40.0228 28.5225 40.0063C30.2214 39.9966 31.9207 40.0063 33.6197 40.0063" stroke="url(#paint9_linear_6_72)" stroke-width="2" stroke-linecap="round"/>
<path d="M22.1025 51.0534C25.2485 50.081 28.3178 49.7949 31.5916 49.7949C32.3182 49.7949 33.0449 49.7949 33.7716 49.7949" stroke="url(#paint10_linear_6_72)" stroke-width="2" stroke-linecap="round"/>
<path d="M19.4336 41.8359C20.1512 42.9422 20.1984 44.6961 20.6412 45.9544C20.8968 46.6808 22.1343 50.6509 22.9486 50.9223" stroke="url(#paint11_linear_6_72)" stroke-linecap="round"/>
<path d="M33.9627 40.5781C33.9627 41.9467 33.9627 43.3153 33.9627 44.6839C33.9627 45.0857 33.9476 45.4756 34.0517 45.8661C34.1446 46.2144 34.1915 49.7947 34.3972 50.1032" stroke="url(#paint12_linear_6_72)" stroke-linecap="round"/>
<defs>
<linearGradient id="paint0_linear_6_72" x1="23.3394" y1="11.9765" x2="30.9928" y2="11.9765" gradientUnits="userSpaceOnUse">
<stop stop-color="#2AF598"/>
<stop offset="1" stop-color="#009EFD"/>
</linearGradient>
<linearGradient id="paint1_linear_6_72" x1="36.4102" y1="11.948" x2="43.2853" y2="11.948" gradientUnits="userSpaceOnUse">
<stop stop-color="#2AF598"/>
<stop offset="1" stop-color="#009EFD"/>
</linearGradient>
<linearGradient id="paint2_linear_6_72" x1="49.2227" y1="11.7178" x2="55.7094" y2="11.7178" gradientUnits="userSpaceOnUse">
<stop stop-color="#2AF598"/>
<stop offset="1" stop-color="#009EFD"/>
</linearGradient>
<linearGradient id="paint3_linear_6_72" x1="16.8457" y1="30.9717" x2="60.7706" y2="30.9717" gradientUnits="userSpaceOnUse">
<stop stop-color="#2AF598"/>
<stop offset="1" stop-color="#009EFD"/>
</linearGradient>
<linearGradient id="paint4_linear_6_72" x1="14.5405" y1="52.9999" x2="27.7637" y2="52.9999" gradientUnits="userSpaceOnUse">
<stop stop-color="#2AF598"/>
<stop offset="1" stop-color="#009EFD"/>
</linearGradient>
<linearGradient id="paint5_linear_6_72" x1="54.1079" y1="53.9058" x2="65.5282" y2="53.9058" gradientUnits="userSpaceOnUse">
<stop stop-color="#2AF598"/>
<stop offset="1" stop-color="#009EFD"/>
</linearGradient>
<linearGradient id="paint6_linear_6_72" x1="67.4277" y1="49.0002" x2="79.3777" y2="49.0002" gradientUnits="userSpaceOnUse">
<stop stop-color="#2AF598"/>
<stop offset="1" stop-color="#009EFD"/>
</linearGradient>
<linearGradient id="paint7_linear_6_72" x1="0.102539" y1="83.0234" x2="82.092" y2="83.0234" gradientUnits="userSpaceOnUse">
<stop stop-color="#2AF598"/>
<stop offset="1" stop-color="#009EFD"/>
</linearGradient>
<linearGradient id="paint8_linear_6_72" x1="27.4849" y1="35.2723" x2="28.0282" y2="35.2723" gradientUnits="userSpaceOnUse">
<stop stop-color="#2AF598"/>
<stop offset="1" stop-color="#009EFD"/>
</linearGradient>
<linearGradient id="paint9_linear_6_72" x1="20.0059" y1="40.6333" x2="33.6197" y2="40.6333" gradientUnits="userSpaceOnUse">
<stop stop-color="#2AF598"/>
<stop offset="1" stop-color="#009EFD"/>
</linearGradient>
<linearGradient id="paint10_linear_6_72" x1="22.1025" y1="50.4241" x2="33.7716" y2="50.4241" gradientUnits="userSpaceOnUse">
<stop stop-color="#2AF598"/>
<stop offset="1" stop-color="#009EFD"/>
</linearGradient>
<linearGradient id="paint11_linear_6_72" x1="19.4336" y1="46.3791" x2="22.9486" y2="46.3791" gradientUnits="userSpaceOnUse">
<stop stop-color="#2AF598"/>
<stop offset="1" stop-color="#009EFD"/>
</linearGradient>
<linearGradient id="paint12_linear_6_72" x1="33.9619" y1="45.3407" x2="34.3972" y2="45.3407" gradientUnits="userSpaceOnUse">
<stop stop-color="#2AF598"/>
<stop offset="1" stop-color="#009EFD"/>
</linearGradient>
<clipPath id="clip0_6_72">
<rect width="11.2623" height="11.2623" fill="white" transform="translate(20.6455 43.2373) rotate(-15)"/>
</clipPath>
</defs>
</svg>
