<svg width="38" height="50" viewBox="0 0 38 50" fill="none" xmlns="http://www.w3.org/2000/svg">
<path d="M35.7524 21.8901C35.2746 21.412 34.3187 22.3679 34.7965 22.846C37.6641 25.7135 37.6641 30.0149 34.7965 32.8822C32.407 33.838 30.0172 33.838 27.6276 32.8822C27.1498 32.8822 26.6718 32.4044 26.6718 31.9264C26.194 31.9264 25.2381 31.4486 24.76 31.4486C22.8483 31.4486 20.9365 33.3603 18.547 31.9264C17.113 30.9705 17.5912 28.5806 15.6795 27.6248C10.9001 25.2353 7.07663 33.36 2.77573 30.4923C-0.570025 28.5806 2.29763 25.2352 4.68714 24.2794H6.59889C7.55472 24.2794 8.03255 22.8457 8.51064 22.3676C9.94464 20.4559 12.3341 19.9781 14.2459 20.9339C14.7237 21.4117 14.7237 21.4117 15.2017 21.4117C15.6795 21.4117 16.1575 21.8895 17.1135 21.4117C18.0693 20.9339 18.5475 19.9781 19.503 19.0222C22.8484 17.1105 25.2382 19.0222 28.1058 20.934C29.5398 22.3676 33.3633 24.2794 34.7969 21.8898C35.7527 17.5886 33.841 13.287 30.4956 11.3748C29.5398 10.897 29.062 10.897 28.1061 11.3748C25.7163 11.8526 24.2823 14.2424 21.4147 10.419C20.9369 9.46313 20.9369 8.50721 19.981 8.02912C17.1135 5.63963 12.8121 7.55135 10.4227 9.46313C8.03324 11.3749 5.6434 13.2866 3.73165 15.6761C2.29799 18.0656 1.8199 20.4554 2.29799 22.845C2.29799 23.3228 3.73165 23.3228 3.73165 22.845C3.25388 19.4996 4.68748 15.6761 7.07741 13.2867C9.4669 11.375 14.7244 6.1178 18.0695 8.50738C19.9812 9.94104 19.9812 12.3309 21.893 13.2867C23.8047 14.2425 24.7606 13.2867 26.6723 12.8089C28.5841 12.3312 30.0177 11.8531 31.4516 13.7648C32.4075 15.1984 32.8853 16.6321 33.3634 18.5438C33.3634 24.7571 26.6723 17.5879 24.2821 17.1101C22.8485 16.6323 20.9367 16.6323 19.5028 17.1101C18.0691 18.0659 17.1133 20.4555 15.2015 19.9777C13.2898 19.9777 13.2898 18.5437 11.378 19.0218C10.4222 19.0218 9.46629 19.4996 8.98855 19.9777C7.55489 21.4113 6.12097 22.3672 4.20922 22.8453C1.34164 24.2789 -1.52603 27.6246 1.34164 30.4923C5.16514 34.7935 8.03272 30.4923 11.3779 28.5805C17.1131 26.191 16.1572 34.7935 21.4141 33.3598C22.8478 32.8821 23.3258 32.404 25.2376 32.404C27.1493 32.4037 27.6274 33.8377 29.5392 34.3154C30.9728 34.7935 33.3627 34.7935 34.7963 33.8376C38.1421 30.9701 39.0979 26.1906 36.2304 22.8456C36.2304 22.3675 35.7523 22.3675 35.7523 21.8898L35.7524 21.8901Z" fill="#171717"/>
<path d="M33.3626 35.2717C32.8845 37.6615 32.4067 39.5733 31.9286 41.9628C31.4508 44.3526 31.4508 47.698 29.5391 48.6539C27.6273 49.6097 26.1937 48.6539 25.2378 48.1761H19.0248C15.6794 48.1761 11.3778 49.6098 8.50982 47.6983C5.64189 45.7862 4.20823 37.1833 5.16406 33.8379H3.7304C3.25263 36.2274 3.25263 38.6172 3.7304 40.529C3.7304 43.3966 4.68623 45.7861 6.59798 47.6979C10.4215 50.5655 16.1563 48.1757 20.4575 48.1757C22.847 48.1757 26.6705 49.6093 29.5379 48.6534C30.9716 47.6976 31.9274 45.7859 31.9274 43.8741C33.3614 41.0068 33.8392 38.1392 34.3173 34.7937L33.3626 35.2717Z" fill="#171717"/>
<path d="M12.8113 42.9194C12.8113 40.5299 12.8113 37.6622 12.3336 35.2724C12.3336 34.7946 10.8999 34.7946 10.8999 35.2724C10.8999 37.6619 11.3777 40.5296 11.3777 42.9194C11.3773 43.3975 12.8113 43.3975 12.8113 42.9194Z" fill="#171717"/>
<path d="M19.0245 43.3971V36.2282C19.0245 35.7504 17.5908 36.2282 17.5908 36.7059V43.8748C18.0686 43.8748 19.0245 43.8748 19.0245 43.3971Z" fill="#171717"/>
<path d="M25.7154 42.4411V35.75C25.7154 35.75 24.2817 35.75 24.2817 36.2278V42.9188C24.2814 42.9188 25.7154 42.9188 25.7154 42.4411Z" fill="#171717"/>
<path d="M22.3697 10.419C24.7592 11.3748 27.149 10.8968 28.5827 8.98535C29.5389 7.55134 29.5389 5.63959 28.1049 4.68376V4.20565C27.1491 2.77199 23.8037 3.72788 22.8478 4.68376C21.8918 5.63963 19.9802 9.46309 22.3696 10.419H22.3697ZM22.8478 6.11742C23.3256 5.16159 24.2815 4.68376 24.7595 4.68376H26.1932C25.7154 4.68376 25.7154 5.16153 26.1932 5.16153C27.6269 5.16153 28.105 6.59519 28.105 7.55102V8.02879C27.1491 9.94088 25.2374 10.419 23.3256 9.94088C21.4139 9.46312 21.892 7.55139 22.8479 6.11738L22.8478 6.11742Z" fill="#171717"/>
<path d="M30.0164 4.20641C31.4501 2.29466 34.3177 1.33883 36.7075 1.33883C37.6634 1.81693 38.1415 0.861057 37.1856 0.861057C34.3181 0.383289 30.9723 1.81689 29.0605 4.20647C29.0605 4.68458 30.0164 4.68458 30.0164 4.20647L30.0164 4.20641Z" fill="#171717"/>
</svg>
